<?xml version="1.0" encoding="utf-8" standalone="no"?>
<!DOCTYPE svg PUBLIC "-//W3C//DTD SVG 1.1//EN"
  "http://www.w3.org/Graphics/SVG/1.1/DTD/svg11.dtd">
<!-- Created with matplotlib (http://matplotlib.org/) -->
<svg height="345pt" version="1.1" viewBox="0 0 460 345" width="460pt" xmlns="http://www.w3.org/2000/svg" xmlns:xlink="http://www.w3.org/1999/xlink">
 <defs>
  <style type="text/css">
*{stroke-linecap:butt;stroke-linejoin:round;}
  </style>
 </defs>
 <g id="figure_1">
  <g id="patch_1">
   <path d="M 0 345.6 
L 460.8 345.6 
L 460.8 0 
L 0 0 
z
" style="fill:#ffffff;"/>
  </g>
  <g id="axes_1">
   <g id="patch_2">
    <path d="M 57.6 307.584 
L 414.72 307.584 
L 414.72 41.472 
L 57.6 41.472 
z
" style="fill:#ffffff;"/>
   </g>
   <g id="PathCollection_1">
    <defs>
     <path d="M 0 6.123724 
C 1.624031 6.123724 3.181764 5.47849 4.330127 4.330127 
C 5.47849 3.181764 6.123724 1.624031 6.123724 0 
C 6.123724 -1.624031 5.47849 -3.181764 4.330127 -4.330127 
C 3.181764 -5.47849 1.624031 -6.123724 0 -6.123724 
C -1.624031 -6.123724 -3.181764 -5.47849 -4.330127 -4.330127 
C -5.47849 -3.181764 -6.123724 -1.624031 -6.123724 0 
C -6.123724 1.624031 -5.47849 3.181764 -4.330127 4.330127 
C -3.181764 5.47849 -1.624031 6.123724 0 6.123724 
z
" id="mc457ab43f6" style="stroke:#f27970;stroke-opacity:0.7;"/>
    </defs>
    <g clip-path="url(#p3752fab80b)">
     <use style="fill:#f27970;fill-opacity:0.7;stroke:#f27970;stroke-opacity:0.7;" x="78.234788" xlink:href="#mc457ab43f6" y="147.700893"/>
     <use style="fill:#f27970;fill-opacity:0.7;stroke:#f27970;stroke-opacity:0.7;" x="78.234788" xlink:href="#mc457ab43f6" y="177.138257"/>
     <use style="fill:#f27970;fill-opacity:0.7;stroke:#f27970;stroke-opacity:0.7;" x="78.234788" xlink:href="#mc457ab43f6" y="113.018114"/>
     <use style="fill:#f27970;fill-opacity:0.7;stroke:#f27970;stroke-opacity:0.7;" x="78.234788" xlink:href="#mc457ab43f6" y="197.931202"/>
     <use style="fill:#f27970;fill-opacity:0.7;stroke:#f27970;stroke-opacity:0.7;" x="78.234788" xlink:href="#mc457ab43f6" y="201.895032"/>
     <use style="fill:#f27970;fill-opacity:0.7;stroke:#f27970;stroke-opacity:0.7;" x="353.033898" xlink:href="#mc457ab43f6" y="92.875412"/>
     <use style="fill:#f27970;fill-opacity:0.7;stroke:#f27970;stroke-opacity:0.7;" x="328.882962" xlink:href="#mc457ab43f6" y="86.367646"/>
     <use style="fill:#f27970;fill-opacity:0.7;stroke:#f27970;stroke-opacity:0.7;" x="78.234788" xlink:href="#mc457ab43f6" y="83.036418"/>
     <use style="fill:#f27970;fill-opacity:0.7;stroke:#f27970;stroke-opacity:0.7;" x="78.234788" xlink:href="#mc457ab43f6" y="85.984706"/>
     <use style="fill:#f27970;fill-opacity:0.7;stroke:#f27970;stroke-opacity:0.7;" x="78.234788" xlink:href="#mc457ab43f6" y="93.857621"/>
     <use style="fill:#f27970;fill-opacity:0.7;stroke:#f27970;stroke-opacity:0.7;" x="181.112829" xlink:href="#mc457ab43f6" y="231.77939"/>
    </g>
   </g>
   <g id="PathCollection_2">
    <defs>
     <path d="M 0 6.123724 
C 1.624031 6.123724 3.181764 5.47849 4.330127 4.330127 
C 5.47849 3.181764 6.123724 1.624031 6.123724 0 
C 6.123724 -1.624031 5.47849 -3.181764 4.330127 -4.330127 
C 3.181764 -5.47849 1.624031 -6.123724 0 -6.123724 
C -1.624031 -6.123724 -3.181764 -5.47849 -4.330127 -4.330127 
C -5.47849 -3.181764 -6.123724 -1.624031 -6.123724 0 
C -6.123724 1.624031 -5.47849 3.181764 -4.330127 4.330127 
C -3.181764 5.47849 -1.624031 6.123724 0 6.123724 
z
" id="m9a2d07b4b3" style="stroke:#bb9727;stroke-opacity:0.7;"/>
    </defs>
    <g clip-path="url(#p3752fab80b)">
     <use style="fill:#bb9727;fill-opacity:0.7;stroke:#bb9727;stroke-opacity:0.7;" x="394.078387" xlink:href="#m9a2d07b4b3" y="125.526221"/>
     <use style="fill:#bb9727;fill-opacity:0.7;stroke:#bb9727;stroke-opacity:0.7;" x="394.078387" xlink:href="#m9a2d07b4b3" y="261.587091"/>
     <use style="fill:#bb9727;fill-opacity:0.7;stroke:#bb9727;stroke-opacity:0.7;" x="394.078387" xlink:href="#m9a2d07b4b3" y="144.821256"/>
     <use style="fill:#bb9727;fill-opacity:0.7;stroke:#bb9727;stroke-opacity:0.7;" x="353.243636" xlink:href="#m9a2d07b4b3" y="171.920887"/>
     <use style="fill:#bb9727;fill-opacity:0.7;stroke:#bb9727;stroke-opacity:0.7;" x="351.613682" xlink:href="#m9a2d07b4b3" y="175.069929"/>
     <use style="fill:#bb9727;fill-opacity:0.7;stroke:#bb9727;stroke-opacity:0.7;" x="389.678943" xlink:href="#m9a2d07b4b3" y="291.107599"/>
     <use style="fill:#bb9727;fill-opacity:0.7;stroke:#bb9727;stroke-opacity:0.7;" x="394.078387" xlink:href="#m9a2d07b4b3" y="291.107599"/>
     <use style="fill:#bb9727;fill-opacity:0.7;stroke:#bb9727;stroke-opacity:0.7;" x="281.961425" xlink:href="#m9a2d07b4b3" y="148.213804"/>
     <use style="fill:#bb9727;fill-opacity:0.7;stroke:#bb9727;stroke-opacity:0.7;" x="283.888904" xlink:href="#m9a2d07b4b3" y="167.141024"/>
     <use style="fill:#bb9727;fill-opacity:0.7;stroke:#bb9727;stroke-opacity:0.7;" x="288.138447" xlink:href="#m9a2d07b4b3" y="144.284288"/>
     <use style="fill:#bb9727;fill-opacity:0.7;stroke:#bb9727;stroke-opacity:0.7;" x="324.964212" xlink:href="#m9a2d07b4b3" y="181.507914"/>
    </g>
   </g>
   <g id="PathCollection_3">
    <defs>
     <path d="M 0 6.123724 
C 1.624031 6.123724 3.181764 5.47849 4.330127 4.330127 
C 5.47849 3.181764 6.123724 1.624031 6.123724 0 
C 6.123724 -1.624031 5.47849 -3.181764 4.330127 -4.330127 
C 3.181764 -5.47849 1.624031 -6.123724 0 -6.123724 
C -1.624031 -6.123724 -3.181764 -5.47849 -4.330127 -4.330127 
C -5.47849 -3.181764 -6.123724 -1.624031 -6.123724 0 
C -6.123724 1.624031 -5.47849 3.181764 -4.330127 4.330127 
C -3.181764 5.47849 -1.624031 6.123724 0 6.123724 
z
" id="m83f170632e" style="stroke:#54b345;stroke-opacity:0.7;"/>
    </defs>
    <g clip-path="url(#p3752fab80b)">
     <use style="fill:#54b345;fill-opacity:0.7;stroke:#54b345;stroke-opacity:0.7;" x="183.706767" xlink:href="#m83f170632e" y="174.535511"/>
     <use style="fill:#54b345;fill-opacity:0.7;stroke:#54b345;stroke-opacity:0.7;" x="171.956965" xlink:href="#m83f170632e" y="147.742377"/>
     <use style="fill:#54b345;fill-opacity:0.7;stroke:#54b345;stroke-opacity:0.7;" x="175.356665" xlink:href="#m83f170632e" y="163.638647"/>
     <use style="fill:#54b345;fill-opacity:0.7;stroke:#54b345;stroke-opacity:0.7;" x="98.668674" xlink:href="#m83f170632e" y="202.642658"/>
     <use style="fill:#54b345;fill-opacity:0.7;stroke:#54b345;stroke-opacity:0.7;" x="101.114359" xlink:href="#m83f170632e" y="212.202499"/>
     <use style="fill:#54b345;fill-opacity:0.7;stroke:#54b345;stroke-opacity:0.7;" x="394.078387" xlink:href="#m83f170632e" y="143.152689"/>
     <use style="fill:#54b345;fill-opacity:0.7;stroke:#54b345;stroke-opacity:0.7;" x="380.877919" xlink:href="#m83f170632e" y="80.740245"/>
     <use style="fill:#54b345;fill-opacity:0.7;stroke:#54b345;stroke-opacity:0.7;" x="154.6441" xlink:href="#m83f170632e" y="57.968086"/>
     <use style="fill:#54b345;fill-opacity:0.7;stroke:#54b345;stroke-opacity:0.7;" x="155.172952" xlink:href="#m83f170632e" y="57.968086"/>
     <use style="fill:#54b345;fill-opacity:0.7;stroke:#54b345;stroke-opacity:0.7;" x="136.518025" xlink:href="#m83f170632e" y="57.968086"/>
     <use style="fill:#54b345;fill-opacity:0.7;stroke:#54b345;stroke-opacity:0.7;" x="244.347837" xlink:href="#m83f170632e" y="252.533806"/>
    </g>
   </g>
   <g id="PathCollection_4">
    <defs>
     <path d="M 0 6.123724 
C 1.624031 6.123724 3.181764 5.47849 4.330127 4.330127 
C 5.47849 3.181764 6.123724 1.624031 6.123724 0 
C 6.123724 -1.624031 5.47849 -3.181764 4.330127 -4.330127 
C 3.181764 -5.47849 1.624031 -6.123724 0 -6.123724 
C -1.624031 -6.123724 -3.181764 -5.47849 -4.330127 -4.330127 
C -5.47849 -3.181764 -6.123724 -1.624031 -6.123724 0 
C -6.123724 1.624031 -5.47849 3.181764 -4.330127 4.330127 
C -3.181764 5.47849 -1.624031 6.123724 0 6.123724 
z
" id="m05831f8913" style="stroke:#05b9e2;stroke-opacity:0.7;"/>
    </defs>
    <g clip-path="url(#p3752fab80b)">
     <use style="fill:#05b9e2;fill-opacity:0.7;stroke:#05b9e2;stroke-opacity:0.7;" x="109.235545" xlink:href="#m05831f8913" y="291.107599"/>
     <use style="fill:#05b9e2;fill-opacity:0.7;stroke:#05b9e2;stroke-opacity:0.7;" x="116.365529" xlink:href="#m05831f8913" y="291.107599"/>
     <use style="fill:#05b9e2;fill-opacity:0.7;stroke:#05b9e2;stroke-opacity:0.7;" x="106.255145" xlink:href="#m05831f8913" y="291.107599"/>
     <use style="fill:#05b9e2;fill-opacity:0.7;stroke:#05b9e2;stroke-opacity:0.7;" x="83.054933" xlink:href="#m05831f8913" y="291.107599"/>
     <use style="fill:#05b9e2;fill-opacity:0.7;stroke:#05b9e2;stroke-opacity:0.7;" x="83.327302" xlink:href="#m05831f8913" y="291.107599"/>
     <use style="fill:#05b9e2;fill-opacity:0.7;stroke:#05b9e2;stroke-opacity:0.7;" x="78.234788" xlink:href="#m05831f8913" y="260.37078"/>
     <use style="fill:#05b9e2;fill-opacity:0.7;stroke:#05b9e2;stroke-opacity:0.7;" x="78.234788" xlink:href="#m05831f8913" y="234.311323"/>
     <use style="fill:#05b9e2;fill-opacity:0.7;stroke:#05b9e2;stroke-opacity:0.7;" x="256.035679" xlink:href="#m05831f8913" y="291.107599"/>
     <use style="fill:#05b9e2;fill-opacity:0.7;stroke:#05b9e2;stroke-opacity:0.7;" x="243.164009" xlink:href="#m05831f8913" y="291.107599"/>
     <use style="fill:#05b9e2;fill-opacity:0.7;stroke:#05b9e2;stroke-opacity:0.7;" x="277.699403" xlink:href="#m05831f8913" y="291.107599"/>
     <use style="fill:#05b9e2;fill-opacity:0.7;stroke:#05b9e2;stroke-opacity:0.7;" x="78.234788" xlink:href="#m05831f8913" y="291.107599"/>
    </g>
   </g>
   <g id="PathCollection_5">
    <defs>
     <path d="M 0 6.123724 
C 1.624031 6.123724 3.181764 5.47849 4.330127 4.330127 
C 5.47849 3.181764 6.123724 1.624031 6.123724 0 
C 6.123724 -1.624031 5.47849 -3.181764 4.330127 -4.330127 
C 3.181764 -5.47849 1.624031 -6.123724 0 -6.123724 
C -1.624031 -6.123724 -3.181764 -5.47849 -4.330127 -4.330127 
C -5.47849 -3.181764 -6.123724 -1.624031 -6.123724 0 
C -6.123724 1.624031 -5.47849 3.181764 -4.330127 4.330127 
C -3.181764 5.47849 -1.624031 6.123724 0 6.123724 
z
" id="m50e53eb779" style="stroke:#8983bf;stroke-opacity:0.7;"/>
    </defs>
    <g clip-path="url(#p3752fab80b)">
     <use style="fill:#8983bf;fill-opacity:0.7;stroke:#8983bf;stroke-opacity:0.7;" x="363.826785" xlink:href="#m50e53eb779" y="57.968086"/>
     <use style="fill:#8983bf;fill-opacity:0.7;stroke:#8983bf;stroke-opacity:0.7;" x="366.642283" xlink:href="#m50e53eb779" y="57.968086"/>
     <use style="fill:#8983bf;fill-opacity:0.7;stroke:#8983bf;stroke-opacity:0.7;" x="362.641512" xlink:href="#m50e53eb779" y="57.968086"/>
     <use style="fill:#8983bf;fill-opacity:0.7;stroke:#8983bf;stroke-opacity:0.7;" x="394.078387" xlink:href="#m50e53eb779" y="57.968086"/>
     <use style="fill:#8983bf;fill-opacity:0.7;stroke:#8983bf;stroke-opacity:0.7;" x="394.078387" xlink:href="#m50e53eb779" y="57.968086"/>
     <use style="fill:#8983bf;fill-opacity:0.7;stroke:#8983bf;stroke-opacity:0.7;" x="389.045534" xlink:href="#m50e53eb779" y="57.968086"/>
     <use style="fill:#8983bf;fill-opacity:0.7;stroke:#8983bf;stroke-opacity:0.7;" x="374.172885" xlink:href="#m50e53eb779" y="57.968086"/>
     <use style="fill:#8983bf;fill-opacity:0.7;stroke:#8983bf;stroke-opacity:0.7;" x="394.078387" xlink:href="#m50e53eb779" y="141.238739"/>
     <use style="fill:#8983bf;fill-opacity:0.7;stroke:#8983bf;stroke-opacity:0.7;" x="394.078387" xlink:href="#m50e53eb779" y="96.387887"/>
     <use style="fill:#8983bf;fill-opacity:0.7;stroke:#8983bf;stroke-opacity:0.7;" x="394.078387" xlink:href="#m50e53eb779" y="106.87801"/>
     <use style="fill:#8983bf;fill-opacity:0.7;stroke:#8983bf;stroke-opacity:0.7;" x="394.078387" xlink:href="#m50e53eb779" y="57.968086"/>
    </g>
   </g>
   <g id="PathCollection_6">
    <path clip-path="url(#p3752fab80b)" d="M 135.355272 157.098576 
C 140.574943 157.098576 145.581532 155.024779 149.272396 151.333914 
C 152.963261 147.64305 155.037058 142.636461 155.037058 137.41679 
C 155.037058 132.19712 152.963261 127.190531 149.272396 123.499666 
C 145.581532 119.808802 140.574943 117.735004 135.355272 117.735004 
C 130.135601 117.735004 125.129012 119.808802 121.438148 123.499666 
C 117.747283 127.190531 115.673486 132.19712 115.673486 137.41679 
C 115.673486 142.636461 117.747283 147.64305 121.438148 151.333914 
C 125.129012 155.024779 130.135601 157.098576 135.355272 157.098576 
z
" style="fill:#f27970;fill-opacity:0.95;stroke:#000000;stroke-dasharray:3.7,1.6;stroke-dashoffset:0;stroke-opacity:0.95;"/>
    <path clip-path="url(#p3752fab80b)" d="M 349.982072 210.429256 
C 355.103728 210.429256 360.016303 208.394401 363.63786 204.772844 
C 367.259418 201.151286 369.294273 196.238711 369.294273 191.117056 
C 369.294273 185.9954 367.259418 181.082825 363.63786 177.461268 
C 360.016303 173.83971 355.103728 171.804855 349.982072 171.804855 
C 344.860417 171.804855 339.947842 173.83971 336.326284 177.461268 
C 332.704727 181.082825 330.669872 185.9954 330.669872 191.117056 
C 330.669872 196.238711 332.704727 201.151286 336.326284 204.772844 
C 339.947842 208.394401 344.860417 210.429256 349.982072 210.429256 
z
" style="fill:#bb9727;fill-opacity:0.95;stroke:#000000;stroke-dasharray:3.7,1.6;stroke-dashoffset:0;stroke-opacity:0.95;"/>
    <path clip-path="url(#p3752fab80b)" d="M 199.676604 155.107936 
C 203.415838 155.107936 207.002426 153.622322 209.646463 150.978285 
C 212.2905 148.334248 213.776114 144.74766 213.776114 141.008426 
C 213.776114 137.269193 212.2905 133.682605 209.646463 131.038568 
C 207.002426 128.39453 203.415838 126.908917 199.676604 126.908917 
C 195.937371 126.908917 192.350783 128.39453 189.706746 131.038568 
C 187.062708 133.682605 185.577095 137.269193 185.577095 141.008426 
C 185.577095 144.74766 187.062708 148.334248 189.706746 150.978285 
C 192.350783 153.622322 195.937371 155.107936 199.676604 155.107936 
z
" style="fill:#54b345;fill-opacity:0.95;stroke:#000000;stroke-dasharray:3.7,1.6;stroke-dashoffset:0;stroke-opacity:0.95;"/>
    <path clip-path="url(#p3752fab80b)" d="M 137.258355 300.286663 
C 141.80304 300.286663 146.162197 298.48104 149.375774 295.267463 
C 152.589351 292.053886 154.394973 287.694729 154.394973 283.150045 
C 154.394973 278.60536 152.589351 274.246203 149.375774 271.032626 
C 146.162197 267.819049 141.80304 266.013426 137.258355 266.013426 
C 132.713671 266.013426 128.354513 267.819049 125.140936 271.032626 
C 121.927359 274.246203 120.121737 278.60536 120.121737 283.150045 
C 120.121737 287.694729 121.927359 292.053886 125.140936 295.267463 
C 128.354513 298.48104 132.713671 300.286663 137.258355 300.286663 
z
" style="fill:#05b9e2;fill-opacity:0.95;stroke:#000000;stroke-dasharray:3.7,1.6;stroke-dashoffset:0;stroke-opacity:0.95;"/>
    <path clip-path="url(#p3752fab80b)" d="M 383.709029 86.378776 
C 387.130564 86.378776 390.412422 85.019386 392.831813 82.599995 
C 395.251203 80.180605 396.610594 76.898746 396.610594 73.477211 
C 396.610594 70.055676 395.251203 66.773818 392.831813 64.354428 
C 390.412422 61.935037 387.130564 60.575647 383.709029 60.575647 
C 380.287494 60.575647 377.005636 61.935037 374.586245 64.354428 
C 372.166855 66.773818 370.807465 70.055676 370.807465 73.477211 
C 370.807465 76.898746 372.166855 80.180605 374.586245 82.599995 
C 377.005636 85.019386 380.287494 86.378776 383.709029 86.378776 
z
" style="fill:#8983bf;fill-opacity:0.95;stroke:#000000;stroke-dasharray:3.7,1.6;stroke-dashoffset:0;stroke-opacity:0.95;"/>
   </g>
   <g id="matplotlib.axis_1">
    <g id="xtick_1">
     <g id="line2d_1">
      <defs>
       <path d="M 0 0 
L 0 3.5 
" id="md31a1dd0a9" style="stroke:#000000;stroke-width:0.8;"/>
      </defs>
      <g>
       <use style="stroke:#000000;stroke-width:0.8;" x="78.234788" xlink:href="#md31a1dd0a9" y="307.584"/>
      </g>
     </g>
     <g id="text_1">
      <!-- 0.0 -->
      <defs>
       <path d="M 31.78125 66.40625 
Q 24.171875 66.40625 20.328125 58.90625 
Q 16.5 51.421875 16.5 36.375 
Q 16.5 21.390625 20.328125 13.890625 
Q 24.171875 6.390625 31.78125 6.390625 
Q 39.453125 6.390625 43.28125 13.890625 
Q 47.125 21.390625 47.125 36.375 
Q 47.125 51.421875 43.28125 58.90625 
Q 39.453125 66.40625 31.78125 66.40625 
z
M 31.78125 74.21875 
Q 44.046875 74.21875 50.515625 64.515625 
Q 56.984375 54.828125 56.984375 36.375 
Q 56.984375 17.96875 50.515625 8.265625 
Q 44.046875 -1.421875 31.78125 -1.421875 
Q 19.53125 -1.421875 13.0625 8.265625 
Q 6.59375 17.96875 6.59375 36.375 
Q 6.59375 54.828125 13.0625 64.515625 
Q 19.53125 74.21875 31.78125 74.21875 
z
" id="DejaVuSans-30"/>
       <path d="M 10.6875 12.40625 
L 21 12.40625 
L 21 0 
L 10.6875 0 
z
" id="DejaVuSans-2e"/>
      </defs>
      <g transform="translate(70.283225 322.182437)scale(0.1 -0.1)">
       <use xlink:href="#DejaVuSans-30"/>
       <use x="63.623047" xlink:href="#DejaVuSans-2e"/>
       <use x="95.410156" xlink:href="#DejaVuSans-30"/>
      </g>
     </g>
    </g>
    <g id="xtick_2">
     <g id="line2d_2">
      <g>
       <use style="stroke:#000000;stroke-width:0.8;" x="141.403508" xlink:href="#md31a1dd0a9" y="307.584"/>
      </g>
     </g>
     <g id="text_2">
      <!-- 0.2 -->
      <defs>
       <path d="M 19.1875 8.296875 
L 53.609375 8.296875 
L 53.609375 0 
L 7.328125 0 
L 7.328125 8.296875 
Q 12.9375 14.109375 22.625 23.890625 
Q 32.328125 33.6875 34.8125 36.53125 
Q 39.546875 41.84375 41.421875 45.53125 
Q 43.3125 49.21875 43.3125 52.78125 
Q 43.3125 58.59375 39.234375 62.25 
Q 35.15625 65.921875 28.609375 65.921875 
Q 23.96875 65.921875 18.8125 64.3125 
Q 13.671875 62.703125 7.8125 59.421875 
L 7.8125 69.390625 
Q 13.765625 71.78125 18.9375 73 
Q 24.125 74.21875 28.421875 74.21875 
Q 39.75 74.21875 46.484375 68.546875 
Q 53.21875 62.890625 53.21875 53.421875 
Q 53.21875 48.921875 51.53125 44.890625 
Q 49.859375 40.875 45.40625 35.40625 
Q 44.1875 33.984375 37.640625 27.21875 
Q 31.109375 20.453125 19.1875 8.296875 
z
" id="DejaVuSans-32"/>
      </defs>
      <g transform="translate(133.451945 322.182437)scale(0.1 -0.1)">
       <use xlink:href="#DejaVuSans-30"/>
       <use x="63.623047" xlink:href="#DejaVuSans-2e"/>
       <use x="95.410156" xlink:href="#DejaVuSans-32"/>
      </g>
     </g>
    </g>
    <g id="xtick_3">
     <g id="line2d_3">
      <g>
       <use style="stroke:#000000;stroke-width:0.8;" x="204.572227" xlink:href="#md31a1dd0a9" y="307.584"/>
      </g>
     </g>
     <g id="text_3">
      <!-- 0.4 -->
      <defs>
       <path d="M 37.796875 64.3125 
L 12.890625 25.390625 
L 37.796875 25.390625 
z
M 35.203125 72.90625 
L 47.609375 72.90625 
L 47.609375 25.390625 
L 58.015625 25.390625 
L 58.015625 17.1875 
L 47.609375 17.1875 
L 47.609375 0 
L 37.796875 0 
L 37.796875 17.1875 
L 4.890625 17.1875 
L 4.890625 26.703125 
z
" id="DejaVuSans-34"/>
      </defs>
      <g transform="translate(196.620665 322.182437)scale(0.1 -0.1)">
       <use xlink:href="#DejaVuSans-30"/>
       <use x="63.623047" xlink:href="#DejaVuSans-2e"/>
       <use x="95.410156" xlink:href="#DejaVuSans-34"/>
      </g>
     </g>
    </g>
    <g id="xtick_4">
     <g id="line2d_4">
      <g>
       <use style="stroke:#000000;stroke-width:0.8;" x="267.740947" xlink:href="#md31a1dd0a9" y="307.584"/>
      </g>
     </g>
     <g id="text_4">
      <!-- 0.6 -->
      <defs>
       <path d="M 33.015625 40.375 
Q 26.375 40.375 22.484375 35.828125 
Q 18.609375 31.296875 18.609375 23.390625 
Q 18.609375 15.53125 22.484375 10.953125 
Q 26.375 6.390625 33.015625 6.390625 
Q 39.65625 6.390625 43.53125 10.953125 
Q 47.40625 15.53125 47.40625 23.390625 
Q 47.40625 31.296875 43.53125 35.828125 
Q 39.65625 40.375 33.015625 40.375 
z
M 52.59375 71.296875 
L 52.59375 62.3125 
Q 48.875 64.0625 45.09375 64.984375 
Q 41.3125 65.921875 37.59375 65.921875 
Q 27.828125 65.921875 22.671875 59.328125 
Q 17.53125 52.734375 16.796875 39.40625 
Q 19.671875 43.65625 24.015625 45.921875 
Q 28.375 48.1875 33.59375 48.1875 
Q 44.578125 48.1875 50.953125 41.515625 
Q 57.328125 34.859375 57.328125 23.390625 
Q 57.328125 12.15625 50.6875 5.359375 
Q 44.046875 -1.421875 33.015625 -1.421875 
Q 20.359375 -1.421875 13.671875 8.265625 
Q 6.984375 17.96875 6.984375 36.375 
Q 6.984375 53.65625 15.1875 63.9375 
Q 23.390625 74.21875 37.203125 74.21875 
Q 40.921875 74.21875 44.703125 73.484375 
Q 48.484375 72.75 52.59375 71.296875 
z
" id="DejaVuSans-36"/>
      </defs>
      <g transform="translate(259.789385 322.182437)scale(0.1 -0.1)">
       <use xlink:href="#DejaVuSans-30"/>
       <use x="63.623047" xlink:href="#DejaVuSans-2e"/>
       <use x="95.410156" xlink:href="#DejaVuSans-36"/>
      </g>
     </g>
    </g>
    <g id="xtick_5">
     <g id="line2d_5">
      <g>
       <use style="stroke:#000000;stroke-width:0.8;" x="330.909667" xlink:href="#md31a1dd0a9" y="307.584"/>
      </g>
     </g>
     <g id="text_5">
      <!-- 0.8 -->
      <defs>
       <path d="M 31.78125 34.625 
Q 24.75 34.625 20.71875 30.859375 
Q 16.703125 27.09375 16.703125 20.515625 
Q 16.703125 13.921875 20.71875 10.15625 
Q 24.75 6.390625 31.78125 6.390625 
Q 38.8125 6.390625 42.859375 10.171875 
Q 46.921875 13.96875 46.921875 20.515625 
Q 46.921875 27.09375 42.890625 30.859375 
Q 38.875 34.625 31.78125 34.625 
z
M 21.921875 38.8125 
Q 15.578125 40.375 12.03125 44.71875 
Q 8.5 49.078125 8.5 55.328125 
Q 8.5 64.0625 14.71875 69.140625 
Q 20.953125 74.21875 31.78125 74.21875 
Q 42.671875 74.21875 48.875 69.140625 
Q 55.078125 64.0625 55.078125 55.328125 
Q 55.078125 49.078125 51.53125 44.71875 
Q 48 40.375 41.703125 38.8125 
Q 48.828125 37.15625 52.796875 32.3125 
Q 56.78125 27.484375 56.78125 20.515625 
Q 56.78125 9.90625 50.3125 4.234375 
Q 43.84375 -1.421875 31.78125 -1.421875 
Q 19.734375 -1.421875 13.25 4.234375 
Q 6.78125 9.90625 6.78125 20.515625 
Q 6.78125 27.484375 10.78125 32.3125 
Q 14.796875 37.15625 21.921875 38.8125 
z
M 18.3125 54.390625 
Q 18.3125 48.734375 21.84375 45.5625 
Q 25.390625 42.390625 31.78125 42.390625 
Q 38.140625 42.390625 41.71875 45.5625 
Q 45.3125 48.734375 45.3125 54.390625 
Q 45.3125 60.0625 41.71875 63.234375 
Q 38.140625 66.40625 31.78125 66.40625 
Q 25.390625 66.40625 21.84375 63.234375 
Q 18.3125 60.0625 18.3125 54.390625 
z
" id="DejaVuSans-38"/>
      </defs>
      <g transform="translate(322.958104 322.182437)scale(0.1 -0.1)">
       <use xlink:href="#DejaVuSans-30"/>
       <use x="63.623047" xlink:href="#DejaVuSans-2e"/>
       <use x="95.410156" xlink:href="#DejaVuSans-38"/>
      </g>
     </g>
    </g>
    <g id="xtick_6">
     <g id="line2d_6">
      <g>
       <use style="stroke:#000000;stroke-width:0.8;" x="394.078387" xlink:href="#md31a1dd0a9" y="307.584"/>
      </g>
     </g>
     <g id="text_6">
      <!-- 1.0 -->
      <defs>
       <path d="M 12.40625 8.296875 
L 28.515625 8.296875 
L 28.515625 63.921875 
L 10.984375 60.40625 
L 10.984375 69.390625 
L 28.421875 72.90625 
L 38.28125 72.90625 
L 38.28125 8.296875 
L 54.390625 8.296875 
L 54.390625 0 
L 12.40625 0 
z
" id="DejaVuSans-31"/>
      </defs>
      <g transform="translate(386.126824 322.182437)scale(0.1 -0.1)">
       <use xlink:href="#DejaVuSans-31"/>
       <use x="63.623047" xlink:href="#DejaVuSans-2e"/>
       <use x="95.410156" xlink:href="#DejaVuSans-30"/>
      </g>
     </g>
    </g>
   </g>
   <g id="matplotlib.axis_2">
    <g id="ytick_1">
     <g id="line2d_7">
      <defs>
       <path d="M 0 0 
L -3.5 0 
" id="mf25d23029d" style="stroke:#000000;stroke-width:0.8;"/>
      </defs>
      <g>
       <use style="stroke:#000000;stroke-width:0.8;" x="57.6" xlink:href="#mf25d23029d" y="291.107599"/>
      </g>
     </g>
     <g id="text_7">
      <!-- 0.0 -->
      <g transform="translate(34.696875 294.906817)scale(0.1 -0.1)">
       <use xlink:href="#DejaVuSans-30"/>
       <use x="63.623047" xlink:href="#DejaVuSans-2e"/>
       <use x="95.410156" xlink:href="#DejaVuSans-30"/>
      </g>
     </g>
    </g>
    <g id="ytick_2">
     <g id="line2d_8">
      <g>
       <use style="stroke:#000000;stroke-width:0.8;" x="57.6" xlink:href="#mf25d23029d" y="244.479696"/>
      </g>
     </g>
     <g id="text_8">
      <!-- 0.2 -->
      <g transform="translate(34.696875 248.278915)scale(0.1 -0.1)">
       <use xlink:href="#DejaVuSans-30"/>
       <use x="63.623047" xlink:href="#DejaVuSans-2e"/>
       <use x="95.410156" xlink:href="#DejaVuSans-32"/>
      </g>
     </g>
    </g>
    <g id="ytick_3">
     <g id="line2d_9">
      <g>
       <use style="stroke:#000000;stroke-width:0.8;" x="57.6" xlink:href="#mf25d23029d" y="197.851794"/>
      </g>
     </g>
     <g id="text_9">
      <!-- 0.4 -->
      <g transform="translate(34.696875 201.651012)scale(0.1 -0.1)">
       <use xlink:href="#DejaVuSans-30"/>
       <use x="63.623047" xlink:href="#DejaVuSans-2e"/>
       <use x="95.410156" xlink:href="#DejaVuSans-34"/>
      </g>
     </g>
    </g>
    <g id="ytick_4">
     <g id="line2d_10">
      <g>
       <use style="stroke:#000000;stroke-width:0.8;" x="57.6" xlink:href="#mf25d23029d" y="151.223891"/>
      </g>
     </g>
     <g id="text_10">
      <!-- 0.6 -->
      <g transform="translate(34.696875 155.02311)scale(0.1 -0.1)">
       <use xlink:href="#DejaVuSans-30"/>
       <use x="63.623047" xlink:href="#DejaVuSans-2e"/>
       <use x="95.410156" xlink:href="#DejaVuSans-36"/>
      </g>
     </g>
    </g>
    <g id="ytick_5">
     <g id="line2d_11">
      <g>
       <use style="stroke:#000000;stroke-width:0.8;" x="57.6" xlink:href="#mf25d23029d" y="104.595989"/>
      </g>
     </g>
     <g id="text_11">
      <!-- 0.8 -->
      <g transform="translate(34.696875 108.395207)scale(0.1 -0.1)">
       <use xlink:href="#DejaVuSans-30"/>
       <use x="63.623047" xlink:href="#DejaVuSans-2e"/>
       <use x="95.410156" xlink:href="#DejaVuSans-38"/>
      </g>
     </g>
    </g>
    <g id="ytick_6">
     <g id="line2d_12">
      <g>
       <use style="stroke:#000000;stroke-width:0.8;" x="57.6" xlink:href="#mf25d23029d" y="57.968086"/>
      </g>
     </g>
     <g id="text_12">
      <!-- 1.0 -->
      <g transform="translate(34.696875 61.767305)scale(0.1 -0.1)">
       <use xlink:href="#DejaVuSans-31"/>
       <use x="63.623047" xlink:href="#DejaVuSans-2e"/>
       <use x="95.410156" xlink:href="#DejaVuSans-30"/>
      </g>
     </g>
    </g>
   </g>
   <g id="patch_3">
    <path d="M 57.6 307.584 
L 57.6 41.472 
" style="fill:none;stroke:#000000;stroke-linecap:square;stroke-linejoin:miter;stroke-width:0.8;"/>
   </g>
   <g id="patch_4">
    <path d="M 414.72 307.584 
L 414.72 41.472 
" style="fill:none;stroke:#000000;stroke-linecap:square;stroke-linejoin:miter;stroke-width:0.8;"/>
   </g>
   <g id="patch_5">
    <path d="M 57.6 307.584 
L 414.72 307.584 
" style="fill:none;stroke:#000000;stroke-linecap:square;stroke-linejoin:miter;stroke-width:0.8;"/>
   </g>
   <g id="patch_6">
    <path d="M 57.6 41.472 
L 414.72 41.472 
" style="fill:none;stroke:#000000;stroke-linecap:square;stroke-linejoin:miter;stroke-width:0.8;"/>
   </g>
   <g id="text_13">
    <!-- (0.18, 0.66) -->
    <defs>
     <path d="M 31 75.875 
Q 24.46875 64.65625 21.28125 53.65625 
Q 18.109375 42.671875 18.109375 31.390625 
Q 18.109375 20.125 21.3125 9.0625 
Q 24.515625 -2 31 -13.1875 
L 23.1875 -13.1875 
Q 15.875 -1.703125 12.234375 9.375 
Q 8.59375 20.453125 8.59375 31.390625 
Q 8.59375 42.28125 12.203125 53.3125 
Q 15.828125 64.359375 23.1875 75.875 
z
" id="DejaVuSans-28"/>
     <path d="M 11.71875 12.40625 
L 22.015625 12.40625 
L 22.015625 4 
L 14.015625 -11.625 
L 7.71875 -11.625 
L 11.71875 4 
z
" id="DejaVuSans-2c"/>
     <path id="DejaVuSans-20"/>
     <path d="M 8.015625 75.875 
L 15.828125 75.875 
Q 23.140625 64.359375 26.78125 53.3125 
Q 30.421875 42.28125 30.421875 31.390625 
Q 30.421875 20.453125 26.78125 9.375 
Q 23.140625 -1.703125 15.828125 -13.1875 
L 8.015625 -13.1875 
Q 14.5 -2 17.703125 9.0625 
Q 20.90625 20.125 20.90625 31.390625 
Q 20.90625 42.671875 17.703125 53.65625 
Q 14.5 64.65625 8.015625 75.875 
z
" id="DejaVuSans-29"/>
    </defs>
    <g transform="translate(106.009959 112.41679)scale(0.1 -0.1)">
     <use xlink:href="#DejaVuSans-28"/>
     <use x="39.013672" xlink:href="#DejaVuSans-30"/>
     <use x="102.636719" xlink:href="#DejaVuSans-2e"/>
     <use x="134.423828" xlink:href="#DejaVuSans-31"/>
     <use x="198.046875" xlink:href="#DejaVuSans-38"/>
     <use x="261.669922" xlink:href="#DejaVuSans-2c"/>
     <use x="293.457031" xlink:href="#DejaVuSans-20"/>
     <use x="325.244141" xlink:href="#DejaVuSans-30"/>
     <use x="388.867188" xlink:href="#DejaVuSans-2e"/>
     <use x="420.654297" xlink:href="#DejaVuSans-36"/>
     <use x="484.277344" xlink:href="#DejaVuSans-36"/>
     <use x="547.900391" xlink:href="#DejaVuSans-29"/>
    </g>
   </g>
   <g id="text_14">
    <!-- (0.86, 0.43) -->
    <defs>
     <path d="M 40.578125 39.3125 
Q 47.65625 37.796875 51.625 33 
Q 55.609375 28.21875 55.609375 21.1875 
Q 55.609375 10.40625 48.1875 4.484375 
Q 40.765625 -1.421875 27.09375 -1.421875 
Q 22.515625 -1.421875 17.65625 -0.515625 
Q 12.796875 0.390625 7.625 2.203125 
L 7.625 11.71875 
Q 11.71875 9.328125 16.59375 8.109375 
Q 21.484375 6.890625 26.8125 6.890625 
Q 36.078125 6.890625 40.9375 10.546875 
Q 45.796875 14.203125 45.796875 21.1875 
Q 45.796875 27.640625 41.28125 31.265625 
Q 36.765625 34.90625 28.71875 34.90625 
L 20.21875 34.90625 
L 20.21875 43.015625 
L 29.109375 43.015625 
Q 36.375 43.015625 40.234375 45.921875 
Q 44.09375 48.828125 44.09375 54.296875 
Q 44.09375 59.90625 40.109375 62.90625 
Q 36.140625 65.921875 28.71875 65.921875 
Q 24.65625 65.921875 20.015625 65.03125 
Q 15.375 64.15625 9.8125 62.3125 
L 9.8125 71.09375 
Q 15.4375 72.65625 20.34375 73.4375 
Q 25.25 74.21875 29.59375 74.21875 
Q 40.828125 74.21875 47.359375 69.109375 
Q 53.90625 64.015625 53.90625 55.328125 
Q 53.90625 49.265625 50.4375 45.09375 
Q 46.96875 40.921875 40.578125 39.3125 
z
" id="DejaVuSans-33"/>
    </defs>
    <g transform="translate(320.63676 166.117056)scale(0.1 -0.1)">
     <use xlink:href="#DejaVuSans-28"/>
     <use x="39.013672" xlink:href="#DejaVuSans-30"/>
     <use x="102.636719" xlink:href="#DejaVuSans-2e"/>
     <use x="134.423828" xlink:href="#DejaVuSans-38"/>
     <use x="198.046875" xlink:href="#DejaVuSans-36"/>
     <use x="261.669922" xlink:href="#DejaVuSans-2c"/>
     <use x="293.457031" xlink:href="#DejaVuSans-20"/>
     <use x="325.244141" xlink:href="#DejaVuSans-30"/>
     <use x="388.867188" xlink:href="#DejaVuSans-2e"/>
     <use x="420.654297" xlink:href="#DejaVuSans-34"/>
     <use x="484.277344" xlink:href="#DejaVuSans-33"/>
     <use x="547.900391" xlink:href="#DejaVuSans-29"/>
    </g>
   </g>
   <g id="text_15">
    <!-- (0.38, 0.64) -->
    <g transform="translate(170.331292 116.008426)scale(0.1 -0.1)">
     <use xlink:href="#DejaVuSans-28"/>
     <use x="39.013672" xlink:href="#DejaVuSans-30"/>
     <use x="102.636719" xlink:href="#DejaVuSans-2e"/>
     <use x="134.423828" xlink:href="#DejaVuSans-33"/>
     <use x="198.046875" xlink:href="#DejaVuSans-38"/>
     <use x="261.669922" xlink:href="#DejaVuSans-2c"/>
     <use x="293.457031" xlink:href="#DejaVuSans-20"/>
     <use x="325.244141" xlink:href="#DejaVuSans-30"/>
     <use x="388.867188" xlink:href="#DejaVuSans-2e"/>
     <use x="420.654297" xlink:href="#DejaVuSans-36"/>
     <use x="484.277344" xlink:href="#DejaVuSans-34"/>
     <use x="547.900391" xlink:href="#DejaVuSans-29"/>
    </g>
   </g>
   <g id="text_16">
    <!-- (0.19, 0.03) -->
    <defs>
     <path d="M 10.984375 1.515625 
L 10.984375 10.5 
Q 14.703125 8.734375 18.5 7.8125 
Q 22.3125 6.890625 25.984375 6.890625 
Q 35.75 6.890625 40.890625 13.453125 
Q 46.046875 20.015625 46.78125 33.40625 
Q 43.953125 29.203125 39.59375 26.953125 
Q 35.25 24.703125 29.984375 24.703125 
Q 19.046875 24.703125 12.671875 31.3125 
Q 6.296875 37.9375 6.296875 49.421875 
Q 6.296875 60.640625 12.9375 67.421875 
Q 19.578125 74.21875 30.609375 74.21875 
Q 43.265625 74.21875 49.921875 64.515625 
Q 56.59375 54.828125 56.59375 36.375 
Q 56.59375 19.140625 48.40625 8.859375 
Q 40.234375 -1.421875 26.421875 -1.421875 
Q 22.703125 -1.421875 18.890625 -0.6875 
Q 15.09375 0.046875 10.984375 1.515625 
z
M 30.609375 32.421875 
Q 37.25 32.421875 41.125 36.953125 
Q 45.015625 41.5 45.015625 49.421875 
Q 45.015625 57.28125 41.125 61.84375 
Q 37.25 66.40625 30.609375 66.40625 
Q 23.96875 66.40625 20.09375 61.84375 
Q 16.21875 57.28125 16.21875 49.421875 
Q 16.21875 41.5 20.09375 36.953125 
Q 23.96875 32.421875 30.609375 32.421875 
z
" id="DejaVuSans-39"/>
    </defs>
    <g transform="translate(107.913043 258.150045)scale(0.1 -0.1)">
     <use xlink:href="#DejaVuSans-28"/>
     <use x="39.013672" xlink:href="#DejaVuSans-30"/>
     <use x="102.636719" xlink:href="#DejaVuSans-2e"/>
     <use x="134.423828" xlink:href="#DejaVuSans-31"/>
     <use x="198.046875" xlink:href="#DejaVuSans-39"/>
     <use x="261.669922" xlink:href="#DejaVuSans-2c"/>
     <use x="293.457031" xlink:href="#DejaVuSans-20"/>
     <use x="325.244141" xlink:href="#DejaVuSans-30"/>
     <use x="388.867188" xlink:href="#DejaVuSans-2e"/>
     <use x="420.654297" xlink:href="#DejaVuSans-30"/>
     <use x="484.277344" xlink:href="#DejaVuSans-33"/>
     <use x="547.900391" xlink:href="#DejaVuSans-29"/>
    </g>
   </g>
   <g id="text_17">
    <!-- (0.97, 0.93) -->
    <defs>
     <path d="M 8.203125 72.90625 
L 55.078125 72.90625 
L 55.078125 68.703125 
L 28.609375 0 
L 18.3125 0 
L 43.21875 64.59375 
L 8.203125 64.59375 
z
" id="DejaVuSans-37"/>
    </defs>
    <g transform="translate(354.363717 48.477211)scale(0.1 -0.1)">
     <use xlink:href="#DejaVuSans-28"/>
     <use x="39.013672" xlink:href="#DejaVuSans-30"/>
     <use x="102.636719" xlink:href="#DejaVuSans-2e"/>
     <use x="134.423828" xlink:href="#DejaVuSans-39"/>
     <use x="198.046875" xlink:href="#DejaVuSans-37"/>
     <use x="261.669922" xlink:href="#DejaVuSans-2c"/>
     <use x="293.457031" xlink:href="#DejaVuSans-20"/>
     <use x="325.244141" xlink:href="#DejaVuSans-30"/>
     <use x="388.867188" xlink:href="#DejaVuSans-2e"/>
     <use x="420.654297" xlink:href="#DejaVuSans-39"/>
     <use x="484.277344" xlink:href="#DejaVuSans-33"/>
     <use x="547.900391" xlink:href="#DejaVuSans-29"/>
    </g>
   </g>
  </g>
 </g>
 <defs>
  <clipPath id="p3752fab80b">
   <rect height="266.112" width="357.12" x="57.6" y="41.472"/>
  </clipPath>
 </defs>
</svg>
