<?xml version="1.0" encoding="utf-8" standalone="no"?>
<!DOCTYPE svg PUBLIC "-//W3C//DTD SVG 1.1//EN"
  "http://www.w3.org/Graphics/SVG/1.1/DTD/svg11.dtd">
<!-- Created with matplotlib (http://matplotlib.org/) -->
<svg height="345pt" version="1.1" viewBox="0 0 460 345" width="460pt" xmlns="http://www.w3.org/2000/svg" xmlns:xlink="http://www.w3.org/1999/xlink">
 <defs>
  <style type="text/css">
*{stroke-linecap:butt;stroke-linejoin:round;}
  </style>
 </defs>
 <g id="figure_1">
  <g id="patch_1">
   <path d="M 0 345.6 
L 460.8 345.6 
L 460.8 0 
L 0 0 
z
" style="fill:#ffffff;"/>
  </g>
  <g id="axes_1">
   <g id="patch_2">
    <path d="M 57.6 307.584 
L 414.72 307.584 
L 414.72 41.472 
L 57.6 41.472 
z
" style="fill:#ffffff;"/>
   </g>
   <g id="PathCollection_1">
    <defs>
     <path d="M 0 6.123724 
C 1.624031 6.123724 3.181764 5.47849 4.330127 4.330127 
C 5.47849 3.181764 6.123724 1.624031 6.123724 0 
C 6.123724 -1.624031 5.47849 -3.181764 4.330127 -4.330127 
C 3.181764 -5.47849 1.624031 -6.123724 0 -6.123724 
C -1.624031 -6.123724 -3.181764 -5.47849 -4.330127 -4.330127 
C -5.47849 -3.181764 -6.123724 -1.624031 -6.123724 0 
C -6.123724 1.624031 -5.47849 3.181764 -4.330127 4.330127 
C -3.181764 5.47849 -1.624031 6.123724 0 6.123724 
z
" id="mc17fe98d52" style="stroke:#f27970;stroke-opacity:0.7;"/>
    </defs>
    <g clip-path="url(#p3ea83c64f5)">
     <use style="fill:#f27970;fill-opacity:0.7;stroke:#f27970;stroke-opacity:0.7;" x="96.704811" xlink:href="#mc17fe98d52" y="291.098798"/>
     <use style="fill:#f27970;fill-opacity:0.7;stroke:#f27970;stroke-opacity:0.7;" x="91.779438" xlink:href="#mc17fe98d52" y="158.601261"/>
     <use style="fill:#f27970;fill-opacity:0.7;stroke:#f27970;stroke-opacity:0.7;" x="102.834058" xlink:href="#mc17fe98d52" y="291.098798"/>
     <use style="fill:#f27970;fill-opacity:0.7;stroke:#f27970;stroke-opacity:0.7;" x="78.234805" xlink:href="#mc17fe98d52" y="240.458885"/>
     <use style="fill:#f27970;fill-opacity:0.7;stroke:#f27970;stroke-opacity:0.7;" x="78.234805" xlink:href="#mc17fe98d52" y="255.505839"/>
     <use style="fill:#f27970;fill-opacity:0.7;stroke:#f27970;stroke-opacity:0.7;" x="360.067014" xlink:href="#mc17fe98d52" y="291.098798"/>
     <use style="fill:#f27970;fill-opacity:0.7;stroke:#f27970;stroke-opacity:0.7;" x="355.941119" xlink:href="#mc17fe98d52" y="270.325377"/>
     <use style="fill:#f27970;fill-opacity:0.7;stroke:#f27970;stroke-opacity:0.7;" x="78.234805" xlink:href="#mc17fe98d52" y="129.766322"/>
     <use style="fill:#f27970;fill-opacity:0.7;stroke:#f27970;stroke-opacity:0.7;" x="78.234805" xlink:href="#mc17fe98d52" y="116.737081"/>
     <use style="fill:#f27970;fill-opacity:0.7;stroke:#f27970;stroke-opacity:0.7;" x="78.234805" xlink:href="#mc17fe98d52" y="136.771187"/>
     <use style="fill:#f27970;fill-opacity:0.7;stroke:#f27970;stroke-opacity:0.7;" x="78.234805" xlink:href="#mc17fe98d52" y="291.098798"/>
    </g>
   </g>
   <g id="PathCollection_2">
    <defs>
     <path d="M 0 6.123724 
C 1.624031 6.123724 3.181764 5.47849 4.330127 4.330127 
C 5.47849 3.181764 6.123724 1.624031 6.123724 0 
C 6.123724 -1.624031 5.47849 -3.181764 4.330127 -4.330127 
C 3.181764 -5.47849 1.624031 -6.123724 0 -6.123724 
C -1.624031 -6.123724 -3.181764 -5.47849 -4.330127 -4.330127 
C -5.47849 -3.181764 -6.123724 -1.624031 -6.123724 0 
C -6.123724 1.624031 -5.47849 3.181764 -4.330127 4.330127 
C -3.181764 5.47849 -1.624031 6.123724 0 6.123724 
z
" id="ma315d56595" style="stroke:#bb9727;stroke-opacity:0.7;"/>
    </defs>
    <g clip-path="url(#p3ea83c64f5)">
     <use style="fill:#bb9727;fill-opacity:0.7;stroke:#bb9727;stroke-opacity:0.7;" x="394.078369" xlink:href="#ma315d56595" y="87.328254"/>
     <use style="fill:#bb9727;fill-opacity:0.7;stroke:#bb9727;stroke-opacity:0.7;" x="394.078369" xlink:href="#ma315d56595" y="291.098798"/>
     <use style="fill:#bb9727;fill-opacity:0.7;stroke:#bb9727;stroke-opacity:0.7;" x="394.078369" xlink:href="#ma315d56595" y="157.772362"/>
     <use style="fill:#bb9727;fill-opacity:0.7;stroke:#bb9727;stroke-opacity:0.7;" x="393.926659" xlink:href="#ma315d56595" y="183.082934"/>
     <use style="fill:#bb9727;fill-opacity:0.7;stroke:#bb9727;stroke-opacity:0.7;" x="353.839025" xlink:href="#ma315d56595" y="188.670342"/>
     <use style="fill:#bb9727;fill-opacity:0.7;stroke:#bb9727;stroke-opacity:0.7;" x="388.308733" xlink:href="#ma315d56595" y="286.936451"/>
     <use style="fill:#bb9727;fill-opacity:0.7;stroke:#bb9727;stroke-opacity:0.7;" x="382.030391" xlink:href="#ma315d56595" y="291.098798"/>
     <use style="fill:#bb9727;fill-opacity:0.7;stroke:#bb9727;stroke-opacity:0.7;" x="289.16607" xlink:href="#ma315d56595" y="164.98371"/>
     <use style="fill:#bb9727;fill-opacity:0.7;stroke:#bb9727;stroke-opacity:0.7;" x="279.878823" xlink:href="#ma315d56595" y="188.309003"/>
     <use style="fill:#bb9727;fill-opacity:0.7;stroke:#bb9727;stroke-opacity:0.7;" x="291.915152" xlink:href="#ma315d56595" y="166.044119"/>
     <use style="fill:#bb9727;fill-opacity:0.7;stroke:#bb9727;stroke-opacity:0.7;" x="287.127227" xlink:href="#ma315d56595" y="193.170388"/>
    </g>
   </g>
   <g id="PathCollection_3">
    <defs>
     <path d="M 0 6.123724 
C 1.624031 6.123724 3.181764 5.47849 4.330127 4.330127 
C 5.47849 3.181764 6.123724 1.624031 6.123724 0 
C 6.123724 -1.624031 5.47849 -3.181764 4.330127 -4.330127 
C 3.181764 -5.47849 1.624031 -6.123724 0 -6.123724 
C -1.624031 -6.123724 -3.181764 -5.47849 -4.330127 -4.330127 
C -5.47849 -3.181764 -6.123724 -1.624031 -6.123724 0 
C -6.123724 1.624031 -5.47849 3.181764 -4.330127 4.330127 
C -3.181764 5.47849 -1.624031 6.123724 0 6.123724 
z
" id="m0dd700852f" style="stroke:#54b345;stroke-opacity:0.7;"/>
    </defs>
    <g clip-path="url(#p3ea83c64f5)">
     <use style="fill:#54b345;fill-opacity:0.7;stroke:#54b345;stroke-opacity:0.7;" x="190.463751" xlink:href="#m0dd700852f" y="228.310381"/>
     <use style="fill:#54b345;fill-opacity:0.7;stroke:#54b345;stroke-opacity:0.7;" x="176.1628" xlink:href="#m0dd700852f" y="127.64903"/>
     <use style="fill:#54b345;fill-opacity:0.7;stroke:#54b345;stroke-opacity:0.7;" x="189.299438" xlink:href="#m0dd700852f" y="198.786618"/>
     <use style="fill:#54b345;fill-opacity:0.7;stroke:#54b345;stroke-opacity:0.7;" x="103.074368" xlink:href="#m0dd700852f" y="223.394786"/>
     <use style="fill:#54b345;fill-opacity:0.7;stroke:#54b345;stroke-opacity:0.7;" x="102.945676" xlink:href="#m0dd700852f" y="225.462105"/>
     <use style="fill:#54b345;fill-opacity:0.7;stroke:#54b345;stroke-opacity:0.7;" x="394.078369" xlink:href="#m0dd700852f" y="178.368847"/>
     <use style="fill:#54b345;fill-opacity:0.7;stroke:#54b345;stroke-opacity:0.7;" x="394.078369" xlink:href="#m0dd700852f" y="165.270675"/>
     <use style="fill:#54b345;fill-opacity:0.7;stroke:#54b345;stroke-opacity:0.7;" x="156.309314" xlink:href="#m0dd700852f" y="57.976726"/>
     <use style="fill:#54b345;fill-opacity:0.7;stroke:#54b345;stroke-opacity:0.7;" x="153.27913" xlink:href="#m0dd700852f" y="57.976726"/>
     <use style="fill:#54b345;fill-opacity:0.7;stroke:#54b345;stroke-opacity:0.7;" x="135.092772" xlink:href="#m0dd700852f" y="57.976726"/>
     <use style="fill:#54b345;fill-opacity:0.7;stroke:#54b345;stroke-opacity:0.7;" x="182.30174" xlink:href="#m0dd700852f" y="280.709177"/>
    </g>
   </g>
   <g id="PathCollection_4">
    <defs>
     <path d="M 0 6.123724 
C 1.624031 6.123724 3.181764 5.47849 4.330127 4.330127 
C 5.47849 3.181764 6.123724 1.624031 6.123724 0 
C 6.123724 -1.624031 5.47849 -3.181764 4.330127 -4.330127 
C 3.181764 -5.47849 1.624031 -6.123724 0 -6.123724 
C -1.624031 -6.123724 -3.181764 -5.47849 -4.330127 -4.330127 
C -5.47849 -3.181764 -6.123724 -1.624031 -6.123724 0 
C -6.123724 1.624031 -5.47849 3.181764 -4.330127 4.330127 
C -3.181764 5.47849 -1.624031 6.123724 0 6.123724 
z
" id="me4cbd84090" style="stroke:#05b9e2;stroke-opacity:0.7;"/>
    </defs>
    <g clip-path="url(#p3ea83c64f5)">
     <use style="fill:#05b9e2;fill-opacity:0.7;stroke:#05b9e2;stroke-opacity:0.7;" x="78.234805" xlink:href="#me4cbd84090" y="147.989777"/>
     <use style="fill:#05b9e2;fill-opacity:0.7;stroke:#05b9e2;stroke-opacity:0.7;" x="78.234805" xlink:href="#me4cbd84090" y="85.121625"/>
     <use style="fill:#05b9e2;fill-opacity:0.7;stroke:#05b9e2;stroke-opacity:0.7;" x="78.234805" xlink:href="#me4cbd84090" y="57.976726"/>
     <use style="fill:#05b9e2;fill-opacity:0.7;stroke:#05b9e2;stroke-opacity:0.7;" x="233.042823" xlink:href="#me4cbd84090" y="291.098798"/>
     <use style="fill:#05b9e2;fill-opacity:0.7;stroke:#05b9e2;stroke-opacity:0.7;" x="215.950876" xlink:href="#me4cbd84090" y="291.098798"/>
     <use style="fill:#05b9e2;fill-opacity:0.7;stroke:#05b9e2;stroke-opacity:0.7;" x="78.234805" xlink:href="#me4cbd84090" y="57.976726"/>
     <use style="fill:#05b9e2;fill-opacity:0.7;stroke:#05b9e2;stroke-opacity:0.7;" x="78.234805" xlink:href="#me4cbd84090" y="57.976726"/>
     <use style="fill:#05b9e2;fill-opacity:0.7;stroke:#05b9e2;stroke-opacity:0.7;" x="225.461978" xlink:href="#me4cbd84090" y="291.098798"/>
     <use style="fill:#05b9e2;fill-opacity:0.7;stroke:#05b9e2;stroke-opacity:0.7;" x="167.299361" xlink:href="#me4cbd84090" y="291.098798"/>
     <use style="fill:#05b9e2;fill-opacity:0.7;stroke:#05b9e2;stroke-opacity:0.7;" x="172.437627" xlink:href="#me4cbd84090" y="291.098798"/>
     <use style="fill:#05b9e2;fill-opacity:0.7;stroke:#05b9e2;stroke-opacity:0.7;" x="173.831058" xlink:href="#me4cbd84090" y="274.889048"/>
    </g>
   </g>
   <g id="PathCollection_5">
    <defs>
     <path d="M 0 6.123724 
C 1.624031 6.123724 3.181764 5.47849 4.330127 4.330127 
C 5.47849 3.181764 6.123724 1.624031 6.123724 0 
C 6.123724 -1.624031 5.47849 -3.181764 4.330127 -4.330127 
C 3.181764 -5.47849 1.624031 -6.123724 0 -6.123724 
C -1.624031 -6.123724 -3.181764 -5.47849 -4.330127 -4.330127 
C -5.47849 -3.181764 -6.123724 -1.624031 -6.123724 0 
C -6.123724 1.624031 -5.47849 3.181764 -4.330127 4.330127 
C -3.181764 5.47849 -1.624031 6.123724 0 6.123724 
z
" id="mf3e8feacb8" style="stroke:#8983bf;stroke-opacity:0.7;"/>
    </defs>
    <g clip-path="url(#p3ea83c64f5)">
     <use style="fill:#8983bf;fill-opacity:0.7;stroke:#8983bf;stroke-opacity:0.7;" x="351.99259" xlink:href="#mf3e8feacb8" y="57.976726"/>
     <use style="fill:#8983bf;fill-opacity:0.7;stroke:#8983bf;stroke-opacity:0.7;" x="349.211826" xlink:href="#mf3e8feacb8" y="57.976726"/>
     <use style="fill:#8983bf;fill-opacity:0.7;stroke:#8983bf;stroke-opacity:0.7;" x="352.034678" xlink:href="#mf3e8feacb8" y="68.301384"/>
     <use style="fill:#8983bf;fill-opacity:0.7;stroke:#8983bf;stroke-opacity:0.7;" x="394.078369" xlink:href="#mf3e8feacb8" y="57.976726"/>
     <use style="fill:#8983bf;fill-opacity:0.7;stroke:#8983bf;stroke-opacity:0.7;" x="394.078369" xlink:href="#mf3e8feacb8" y="57.976726"/>
     <use style="fill:#8983bf;fill-opacity:0.7;stroke:#8983bf;stroke-opacity:0.7;" x="375.420077" xlink:href="#mf3e8feacb8" y="141.434539"/>
     <use style="fill:#8983bf;fill-opacity:0.7;stroke:#8983bf;stroke-opacity:0.7;" x="363.002847" xlink:href="#mf3e8feacb8" y="165.298202"/>
     <use style="fill:#8983bf;fill-opacity:0.7;stroke:#8983bf;stroke-opacity:0.7;" x="394.078369" xlink:href="#mf3e8feacb8" y="168.212596"/>
     <use style="fill:#8983bf;fill-opacity:0.7;stroke:#8983bf;stroke-opacity:0.7;" x="394.078369" xlink:href="#mf3e8feacb8" y="124.186947"/>
     <use style="fill:#8983bf;fill-opacity:0.7;stroke:#8983bf;stroke-opacity:0.7;" x="394.078369" xlink:href="#mf3e8feacb8" y="136.826057"/>
     <use style="fill:#8983bf;fill-opacity:0.7;stroke:#8983bf;stroke-opacity:0.7;" x="394.078369" xlink:href="#mf3e8feacb8" y="57.976726"/>
    </g>
   </g>
   <g id="PathCollection_6">
    <path clip-path="url(#p3ea83c64f5)" d="M 134.248661 244.460072 
C 139.468332 244.460072 144.474921 242.386275 148.165785 238.69541 
C 151.85665 235.004546 153.930447 229.997957 153.930447 224.778286 
C 153.930447 219.558615 151.85665 214.552026 148.165785 210.861162 
C 144.474921 207.170297 139.468332 205.0965 134.248661 205.0965 
C 129.02899 205.0965 124.022401 207.170297 120.331537 210.861162 
C 116.640672 214.552026 114.566875 219.558615 114.566875 224.778286 
C 114.566875 229.997957 116.640672 235.004546 120.331537 238.69541 
C 124.022401 242.386275 129.02899 244.460072 134.248661 244.460072 
z
" style="fill:#f27970;fill-opacity:0.95;stroke:#000000;stroke-dasharray:3.7,1.6;stroke-dashoffset:0;stroke-opacity:0.95;"/>
    <path clip-path="url(#p3ea83c64f5)" d="M 349.857017 219.175397 
C 354.978672 219.175397 359.891248 217.140542 363.512805 213.518984 
C 367.134362 209.897427 369.169218 204.984852 369.169218 199.863196 
C 369.169218 194.741541 367.134362 189.828966 363.512805 186.207408 
C 359.891248 182.585851 354.978672 180.550996 349.857017 180.550996 
C 344.735362 180.550996 339.822786 182.585851 336.201229 186.207408 
C 332.579672 189.828966 330.544817 194.741541 330.544817 199.863196 
C 330.544817 204.984852 332.579672 209.897427 336.201229 213.518984 
C 339.822786 217.140542 344.735362 219.175397 349.857017 219.175397 
z
" style="fill:#bb9727;fill-opacity:0.95;stroke:#000000;stroke-dasharray:3.7,1.6;stroke-dashoffset:0;stroke-opacity:0.95;"/>
    <path clip-path="url(#p3ea83c64f5)" d="M 197.916884 177.906945 
C 201.656118 177.906945 205.242705 176.421332 207.886743 173.777295 
C 210.53078 171.133257 212.016394 167.54667 212.016394 163.807436 
C 212.016394 160.068202 210.53078 156.481615 207.886743 153.837577 
C 205.242705 151.19354 201.656118 149.707927 197.916884 149.707927 
C 194.177651 149.707927 190.591063 151.19354 187.947026 153.837577 
C 185.302988 156.481615 183.817375 160.068202 183.817375 163.807436 
C 183.817375 167.54667 185.302988 171.133257 187.947026 173.777295 
C 190.591063 176.421332 194.177651 177.906945 197.916884 177.906945 
z
" style="fill:#54b345;fill-opacity:0.95;stroke:#000000;stroke-dasharray:3.7,1.6;stroke-dashoffset:0;stroke-opacity:0.95;"/>
    <path clip-path="url(#p3ea83c64f5)" d="M 143.563432 211.447947 
C 148.108116 211.447947 152.467273 209.642325 155.680851 206.428748 
C 158.894428 203.215171 160.70005 198.856013 160.70005 194.311329 
C 160.70005 189.766645 158.894428 185.407487 155.680851 182.19391 
C 152.467273 178.980333 148.108116 177.174711 143.563432 177.174711 
C 139.018747 177.174711 134.65959 178.980333 131.446013 182.19391 
C 128.232436 185.407487 126.426814 189.766645 126.426814 194.311329 
C 126.426814 198.856013 128.232436 203.215171 131.446013 206.428748 
C 134.65959 209.642325 139.018747 211.447947 143.563432 211.447947 
z
" style="fill:#05b9e2;fill-opacity:0.95;stroke:#000000;stroke-dasharray:3.7,1.6;stroke-dashoffset:0;stroke-opacity:0.95;"/>
    <path clip-path="url(#p3ea83c64f5)" d="M 377.830203 112.369142 
C 381.251738 112.369142 384.533596 111.009752 386.952987 108.590361 
C 389.372377 106.170971 390.731767 102.889112 390.731767 99.467578 
C 390.731767 96.046043 389.372377 92.764184 386.952987 90.344794 
C 384.533596 87.925403 381.251738 86.566013 377.830203 86.566013 
C 374.408668 86.566013 371.12681 87.925403 368.707419 90.344794 
C 366.288029 92.764184 364.928638 96.046043 364.928638 99.467578 
C 364.928638 102.889112 366.288029 106.170971 368.707419 108.590361 
C 371.12681 111.009752 374.408668 112.369142 377.830203 112.369142 
z
" style="fill:#8983bf;fill-opacity:0.95;stroke:#000000;stroke-dasharray:3.7,1.6;stroke-dashoffset:0;stroke-opacity:0.95;"/>
   </g>
   <g id="matplotlib.axis_1">
    <g id="xtick_1">
     <g id="line2d_1">
      <defs>
       <path d="M 0 0 
L 0 3.5 
" id="m0859a82fb4" style="stroke:#000000;stroke-width:0.8;"/>
      </defs>
      <g>
       <use style="stroke:#000000;stroke-width:0.8;" x="78.234805" xlink:href="#m0859a82fb4" y="307.584"/>
      </g>
     </g>
     <g id="text_1">
      <!-- 0.0 -->
      <defs>
       <path d="M 31.78125 66.40625 
Q 24.171875 66.40625 20.328125 58.90625 
Q 16.5 51.421875 16.5 36.375 
Q 16.5 21.390625 20.328125 13.890625 
Q 24.171875 6.390625 31.78125 6.390625 
Q 39.453125 6.390625 43.28125 13.890625 
Q 47.125 21.390625 47.125 36.375 
Q 47.125 51.421875 43.28125 58.90625 
Q 39.453125 66.40625 31.78125 66.40625 
z
M 31.78125 74.21875 
Q 44.046875 74.21875 50.515625 64.515625 
Q 56.984375 54.828125 56.984375 36.375 
Q 56.984375 17.96875 50.515625 8.265625 
Q 44.046875 -1.421875 31.78125 -1.421875 
Q 19.53125 -1.421875 13.0625 8.265625 
Q 6.59375 17.96875 6.59375 36.375 
Q 6.59375 54.828125 13.0625 64.515625 
Q 19.53125 74.21875 31.78125 74.21875 
z
" id="DejaVuSans-30"/>
       <path d="M 10.6875 12.40625 
L 21 12.40625 
L 21 0 
L 10.6875 0 
z
" id="DejaVuSans-2e"/>
      </defs>
      <g transform="translate(70.283243 322.182437)scale(0.1 -0.1)">
       <use xlink:href="#DejaVuSans-30"/>
       <use x="63.623047" xlink:href="#DejaVuSans-2e"/>
       <use x="95.410156" xlink:href="#DejaVuSans-30"/>
      </g>
     </g>
    </g>
    <g id="xtick_2">
     <g id="line2d_2">
      <g>
       <use style="stroke:#000000;stroke-width:0.8;" x="141.403518" xlink:href="#m0859a82fb4" y="307.584"/>
      </g>
     </g>
     <g id="text_2">
      <!-- 0.2 -->
      <defs>
       <path d="M 19.1875 8.296875 
L 53.609375 8.296875 
L 53.609375 0 
L 7.328125 0 
L 7.328125 8.296875 
Q 12.9375 14.109375 22.625 23.890625 
Q 32.328125 33.6875 34.8125 36.53125 
Q 39.546875 41.84375 41.421875 45.53125 
Q 43.3125 49.21875 43.3125 52.78125 
Q 43.3125 58.59375 39.234375 62.25 
Q 35.15625 65.921875 28.609375 65.921875 
Q 23.96875 65.921875 18.8125 64.3125 
Q 13.671875 62.703125 7.8125 59.421875 
L 7.8125 69.390625 
Q 13.765625 71.78125 18.9375 73 
Q 24.125 74.21875 28.421875 74.21875 
Q 39.75 74.21875 46.484375 68.546875 
Q 53.21875 62.890625 53.21875 53.421875 
Q 53.21875 48.921875 51.53125 44.890625 
Q 49.859375 40.875 45.40625 35.40625 
Q 44.1875 33.984375 37.640625 27.21875 
Q 31.109375 20.453125 19.1875 8.296875 
z
" id="DejaVuSans-32"/>
      </defs>
      <g transform="translate(133.451955 322.182437)scale(0.1 -0.1)">
       <use xlink:href="#DejaVuSans-30"/>
       <use x="63.623047" xlink:href="#DejaVuSans-2e"/>
       <use x="95.410156" xlink:href="#DejaVuSans-32"/>
      </g>
     </g>
    </g>
    <g id="xtick_3">
     <g id="line2d_3">
      <g>
       <use style="stroke:#000000;stroke-width:0.8;" x="204.572231" xlink:href="#m0859a82fb4" y="307.584"/>
      </g>
     </g>
     <g id="text_3">
      <!-- 0.4 -->
      <defs>
       <path d="M 37.796875 64.3125 
L 12.890625 25.390625 
L 37.796875 25.390625 
z
M 35.203125 72.90625 
L 47.609375 72.90625 
L 47.609375 25.390625 
L 58.015625 25.390625 
L 58.015625 17.1875 
L 47.609375 17.1875 
L 47.609375 0 
L 37.796875 0 
L 37.796875 17.1875 
L 4.890625 17.1875 
L 4.890625 26.703125 
z
" id="DejaVuSans-34"/>
      </defs>
      <g transform="translate(196.620668 322.182437)scale(0.1 -0.1)">
       <use xlink:href="#DejaVuSans-30"/>
       <use x="63.623047" xlink:href="#DejaVuSans-2e"/>
       <use x="95.410156" xlink:href="#DejaVuSans-34"/>
      </g>
     </g>
    </g>
    <g id="xtick_4">
     <g id="line2d_4">
      <g>
       <use style="stroke:#000000;stroke-width:0.8;" x="267.740944" xlink:href="#m0859a82fb4" y="307.584"/>
      </g>
     </g>
     <g id="text_4">
      <!-- 0.6 -->
      <defs>
       <path d="M 33.015625 40.375 
Q 26.375 40.375 22.484375 35.828125 
Q 18.609375 31.296875 18.609375 23.390625 
Q 18.609375 15.53125 22.484375 10.953125 
Q 26.375 6.390625 33.015625 6.390625 
Q 39.65625 6.390625 43.53125 10.953125 
Q 47.40625 15.53125 47.40625 23.390625 
Q 47.40625 31.296875 43.53125 35.828125 
Q 39.65625 40.375 33.015625 40.375 
z
M 52.59375 71.296875 
L 52.59375 62.3125 
Q 48.875 64.0625 45.09375 64.984375 
Q 41.3125 65.921875 37.59375 65.921875 
Q 27.828125 65.921875 22.671875 59.328125 
Q 17.53125 52.734375 16.796875 39.40625 
Q 19.671875 43.65625 24.015625 45.921875 
Q 28.375 48.1875 33.59375 48.1875 
Q 44.578125 48.1875 50.953125 41.515625 
Q 57.328125 34.859375 57.328125 23.390625 
Q 57.328125 12.15625 50.6875 5.359375 
Q 44.046875 -1.421875 33.015625 -1.421875 
Q 20.359375 -1.421875 13.671875 8.265625 
Q 6.984375 17.96875 6.984375 36.375 
Q 6.984375 53.65625 15.1875 63.9375 
Q 23.390625 74.21875 37.203125 74.21875 
Q 40.921875 74.21875 44.703125 73.484375 
Q 48.484375 72.75 52.59375 71.296875 
z
" id="DejaVuSans-36"/>
      </defs>
      <g transform="translate(259.789381 322.182437)scale(0.1 -0.1)">
       <use xlink:href="#DejaVuSans-30"/>
       <use x="63.623047" xlink:href="#DejaVuSans-2e"/>
       <use x="95.410156" xlink:href="#DejaVuSans-36"/>
      </g>
     </g>
    </g>
    <g id="xtick_5">
     <g id="line2d_5">
      <g>
       <use style="stroke:#000000;stroke-width:0.8;" x="330.909656" xlink:href="#m0859a82fb4" y="307.584"/>
      </g>
     </g>
     <g id="text_5">
      <!-- 0.8 -->
      <defs>
       <path d="M 31.78125 34.625 
Q 24.75 34.625 20.71875 30.859375 
Q 16.703125 27.09375 16.703125 20.515625 
Q 16.703125 13.921875 20.71875 10.15625 
Q 24.75 6.390625 31.78125 6.390625 
Q 38.8125 6.390625 42.859375 10.171875 
Q 46.921875 13.96875 46.921875 20.515625 
Q 46.921875 27.09375 42.890625 30.859375 
Q 38.875 34.625 31.78125 34.625 
z
M 21.921875 38.8125 
Q 15.578125 40.375 12.03125 44.71875 
Q 8.5 49.078125 8.5 55.328125 
Q 8.5 64.0625 14.71875 69.140625 
Q 20.953125 74.21875 31.78125 74.21875 
Q 42.671875 74.21875 48.875 69.140625 
Q 55.078125 64.0625 55.078125 55.328125 
Q 55.078125 49.078125 51.53125 44.71875 
Q 48 40.375 41.703125 38.8125 
Q 48.828125 37.15625 52.796875 32.3125 
Q 56.78125 27.484375 56.78125 20.515625 
Q 56.78125 9.90625 50.3125 4.234375 
Q 43.84375 -1.421875 31.78125 -1.421875 
Q 19.734375 -1.421875 13.25 4.234375 
Q 6.78125 9.90625 6.78125 20.515625 
Q 6.78125 27.484375 10.78125 32.3125 
Q 14.796875 37.15625 21.921875 38.8125 
z
M 18.3125 54.390625 
Q 18.3125 48.734375 21.84375 45.5625 
Q 25.390625 42.390625 31.78125 42.390625 
Q 38.140625 42.390625 41.71875 45.5625 
Q 45.3125 48.734375 45.3125 54.390625 
Q 45.3125 60.0625 41.71875 63.234375 
Q 38.140625 66.40625 31.78125 66.40625 
Q 25.390625 66.40625 21.84375 63.234375 
Q 18.3125 60.0625 18.3125 54.390625 
z
" id="DejaVuSans-38"/>
      </defs>
      <g transform="translate(322.958094 322.182437)scale(0.1 -0.1)">
       <use xlink:href="#DejaVuSans-30"/>
       <use x="63.623047" xlink:href="#DejaVuSans-2e"/>
       <use x="95.410156" xlink:href="#DejaVuSans-38"/>
      </g>
     </g>
    </g>
    <g id="xtick_6">
     <g id="line2d_6">
      <g>
       <use style="stroke:#000000;stroke-width:0.8;" x="394.078369" xlink:href="#m0859a82fb4" y="307.584"/>
      </g>
     </g>
     <g id="text_6">
      <!-- 1.0 -->
      <defs>
       <path d="M 12.40625 8.296875 
L 28.515625 8.296875 
L 28.515625 63.921875 
L 10.984375 60.40625 
L 10.984375 69.390625 
L 28.421875 72.90625 
L 38.28125 72.90625 
L 38.28125 8.296875 
L 54.390625 8.296875 
L 54.390625 0 
L 12.40625 0 
z
" id="DejaVuSans-31"/>
      </defs>
      <g transform="translate(386.126807 322.182437)scale(0.1 -0.1)">
       <use xlink:href="#DejaVuSans-31"/>
       <use x="63.623047" xlink:href="#DejaVuSans-2e"/>
       <use x="95.410156" xlink:href="#DejaVuSans-30"/>
      </g>
     </g>
    </g>
   </g>
   <g id="matplotlib.axis_2">
    <g id="ytick_1">
     <g id="line2d_7">
      <defs>
       <path d="M 0 0 
L -3.5 0 
" id="mce902e34c1" style="stroke:#000000;stroke-width:0.8;"/>
      </defs>
      <g>
       <use style="stroke:#000000;stroke-width:0.8;" x="57.6" xlink:href="#mce902e34c1" y="291.098798"/>
      </g>
     </g>
     <g id="text_7">
      <!-- 0.0 -->
      <g transform="translate(34.696875 294.898017)scale(0.1 -0.1)">
       <use xlink:href="#DejaVuSans-30"/>
       <use x="63.623047" xlink:href="#DejaVuSans-2e"/>
       <use x="95.410156" xlink:href="#DejaVuSans-30"/>
      </g>
     </g>
    </g>
    <g id="ytick_2">
     <g id="line2d_8">
      <g>
       <use style="stroke:#000000;stroke-width:0.8;" x="57.6" xlink:href="#mce902e34c1" y="244.474384"/>
      </g>
     </g>
     <g id="text_8">
      <!-- 0.2 -->
      <g transform="translate(34.696875 248.273602)scale(0.1 -0.1)">
       <use xlink:href="#DejaVuSans-30"/>
       <use x="63.623047" xlink:href="#DejaVuSans-2e"/>
       <use x="95.410156" xlink:href="#DejaVuSans-32"/>
      </g>
     </g>
    </g>
    <g id="ytick_3">
     <g id="line2d_9">
      <g>
       <use style="stroke:#000000;stroke-width:0.8;" x="57.6" xlink:href="#mce902e34c1" y="197.849969"/>
      </g>
     </g>
     <g id="text_9">
      <!-- 0.4 -->
      <g transform="translate(34.696875 201.649188)scale(0.1 -0.1)">
       <use xlink:href="#DejaVuSans-30"/>
       <use x="63.623047" xlink:href="#DejaVuSans-2e"/>
       <use x="95.410156" xlink:href="#DejaVuSans-34"/>
      </g>
     </g>
    </g>
    <g id="ytick_4">
     <g id="line2d_10">
      <g>
       <use style="stroke:#000000;stroke-width:0.8;" x="57.6" xlink:href="#mce902e34c1" y="151.225555"/>
      </g>
     </g>
     <g id="text_10">
      <!-- 0.6 -->
      <g transform="translate(34.696875 155.024773)scale(0.1 -0.1)">
       <use xlink:href="#DejaVuSans-30"/>
       <use x="63.623047" xlink:href="#DejaVuSans-2e"/>
       <use x="95.410156" xlink:href="#DejaVuSans-36"/>
      </g>
     </g>
    </g>
    <g id="ytick_5">
     <g id="line2d_11">
      <g>
       <use style="stroke:#000000;stroke-width:0.8;" x="57.6" xlink:href="#mce902e34c1" y="104.60114"/>
      </g>
     </g>
     <g id="text_11">
      <!-- 0.8 -->
      <g transform="translate(34.696875 108.400359)scale(0.1 -0.1)">
       <use xlink:href="#DejaVuSans-30"/>
       <use x="63.623047" xlink:href="#DejaVuSans-2e"/>
       <use x="95.410156" xlink:href="#DejaVuSans-38"/>
      </g>
     </g>
    </g>
    <g id="ytick_6">
     <g id="line2d_12">
      <g>
       <use style="stroke:#000000;stroke-width:0.8;" x="57.6" xlink:href="#mce902e34c1" y="57.976726"/>
      </g>
     </g>
     <g id="text_12">
      <!-- 1.0 -->
      <g transform="translate(34.696875 61.775944)scale(0.1 -0.1)">
       <use xlink:href="#DejaVuSans-31"/>
       <use x="63.623047" xlink:href="#DejaVuSans-2e"/>
       <use x="95.410156" xlink:href="#DejaVuSans-30"/>
      </g>
     </g>
    </g>
   </g>
   <g id="patch_3">
    <path d="M 57.6 307.584 
L 57.6 41.472 
" style="fill:none;stroke:#000000;stroke-linecap:square;stroke-linejoin:miter;stroke-width:0.8;"/>
   </g>
   <g id="patch_4">
    <path d="M 414.72 307.584 
L 414.72 41.472 
" style="fill:none;stroke:#000000;stroke-linecap:square;stroke-linejoin:miter;stroke-width:0.8;"/>
   </g>
   <g id="patch_5">
    <path d="M 57.6 307.584 
L 414.72 307.584 
" style="fill:none;stroke:#000000;stroke-linecap:square;stroke-linejoin:miter;stroke-width:0.8;"/>
   </g>
   <g id="patch_6">
    <path d="M 57.6 41.472 
L 414.72 41.472 
" style="fill:none;stroke:#000000;stroke-linecap:square;stroke-linejoin:miter;stroke-width:0.8;"/>
   </g>
   <g id="text_13">
    <!-- (0.18, 0.28) -->
    <defs>
     <path d="M 31 75.875 
Q 24.46875 64.65625 21.28125 53.65625 
Q 18.109375 42.671875 18.109375 31.390625 
Q 18.109375 20.125 21.3125 9.0625 
Q 24.515625 -2 31 -13.1875 
L 23.1875 -13.1875 
Q 15.875 -1.703125 12.234375 9.375 
Q 8.59375 20.453125 8.59375 31.390625 
Q 8.59375 42.28125 12.203125 53.3125 
Q 15.828125 64.359375 23.1875 75.875 
z
" id="DejaVuSans-28"/>
     <path d="M 11.71875 12.40625 
L 22.015625 12.40625 
L 22.015625 4 
L 14.015625 -11.625 
L 7.71875 -11.625 
L 11.71875 4 
z
" id="DejaVuSans-2c"/>
     <path id="DejaVuSans-20"/>
     <path d="M 8.015625 75.875 
L 15.828125 75.875 
Q 23.140625 64.359375 26.78125 53.3125 
Q 30.421875 42.28125 30.421875 31.390625 
Q 30.421875 20.453125 26.78125 9.375 
Q 23.140625 -1.703125 15.828125 -13.1875 
L 8.015625 -13.1875 
Q 14.5 -2 17.703125 9.0625 
Q 20.90625 20.125 20.90625 31.390625 
Q 20.90625 42.671875 17.703125 53.65625 
Q 14.5 64.65625 8.015625 75.875 
z
" id="DejaVuSans-29"/>
    </defs>
    <g transform="translate(104.903348 199.778286)scale(0.1 -0.1)">
     <use xlink:href="#DejaVuSans-28"/>
     <use x="39.013672" xlink:href="#DejaVuSans-30"/>
     <use x="102.636719" xlink:href="#DejaVuSans-2e"/>
     <use x="134.423828" xlink:href="#DejaVuSans-31"/>
     <use x="198.046875" xlink:href="#DejaVuSans-38"/>
     <use x="261.669922" xlink:href="#DejaVuSans-2c"/>
     <use x="293.457031" xlink:href="#DejaVuSans-20"/>
     <use x="325.244141" xlink:href="#DejaVuSans-30"/>
     <use x="388.867188" xlink:href="#DejaVuSans-2e"/>
     <use x="420.654297" xlink:href="#DejaVuSans-32"/>
     <use x="484.277344" xlink:href="#DejaVuSans-38"/>
     <use x="547.900391" xlink:href="#DejaVuSans-29"/>
    </g>
   </g>
   <g id="text_14">
    <!-- (0.86, 0.39) -->
    <defs>
     <path d="M 40.578125 39.3125 
Q 47.65625 37.796875 51.625 33 
Q 55.609375 28.21875 55.609375 21.1875 
Q 55.609375 10.40625 48.1875 4.484375 
Q 40.765625 -1.421875 27.09375 -1.421875 
Q 22.515625 -1.421875 17.65625 -0.515625 
Q 12.796875 0.390625 7.625 2.203125 
L 7.625 11.71875 
Q 11.71875 9.328125 16.59375 8.109375 
Q 21.484375 6.890625 26.8125 6.890625 
Q 36.078125 6.890625 40.9375 10.546875 
Q 45.796875 14.203125 45.796875 21.1875 
Q 45.796875 27.640625 41.28125 31.265625 
Q 36.765625 34.90625 28.71875 34.90625 
L 20.21875 34.90625 
L 20.21875 43.015625 
L 29.109375 43.015625 
Q 36.375 43.015625 40.234375 45.921875 
Q 44.09375 48.828125 44.09375 54.296875 
Q 44.09375 59.90625 40.109375 62.90625 
Q 36.140625 65.921875 28.71875 65.921875 
Q 24.65625 65.921875 20.015625 65.03125 
Q 15.375 64.15625 9.8125 62.3125 
L 9.8125 71.09375 
Q 15.4375 72.65625 20.34375 73.4375 
Q 25.25 74.21875 29.59375 74.21875 
Q 40.828125 74.21875 47.359375 69.109375 
Q 53.90625 64.015625 53.90625 55.328125 
Q 53.90625 49.265625 50.4375 45.09375 
Q 46.96875 40.921875 40.578125 39.3125 
z
" id="DejaVuSans-33"/>
     <path d="M 10.984375 1.515625 
L 10.984375 10.5 
Q 14.703125 8.734375 18.5 7.8125 
Q 22.3125 6.890625 25.984375 6.890625 
Q 35.75 6.890625 40.890625 13.453125 
Q 46.046875 20.015625 46.78125 33.40625 
Q 43.953125 29.203125 39.59375 26.953125 
Q 35.25 24.703125 29.984375 24.703125 
Q 19.046875 24.703125 12.671875 31.3125 
Q 6.296875 37.9375 6.296875 49.421875 
Q 6.296875 60.640625 12.9375 67.421875 
Q 19.578125 74.21875 30.609375 74.21875 
Q 43.265625 74.21875 49.921875 64.515625 
Q 56.59375 54.828125 56.59375 36.375 
Q 56.59375 19.140625 48.40625 8.859375 
Q 40.234375 -1.421875 26.421875 -1.421875 
Q 22.703125 -1.421875 18.890625 -0.6875 
Q 15.09375 0.046875 10.984375 1.515625 
z
M 30.609375 32.421875 
Q 37.25 32.421875 41.125 36.953125 
Q 45.015625 41.5 45.015625 49.421875 
Q 45.015625 57.28125 41.125 61.84375 
Q 37.25 66.40625 30.609375 66.40625 
Q 23.96875 66.40625 20.09375 61.84375 
Q 16.21875 57.28125 16.21875 49.421875 
Q 16.21875 41.5 20.09375 36.953125 
Q 23.96875 32.421875 30.609375 32.421875 
z
" id="DejaVuSans-39"/>
    </defs>
    <g transform="translate(320.511705 174.863196)scale(0.1 -0.1)">
     <use xlink:href="#DejaVuSans-28"/>
     <use x="39.013672" xlink:href="#DejaVuSans-30"/>
     <use x="102.636719" xlink:href="#DejaVuSans-2e"/>
     <use x="134.423828" xlink:href="#DejaVuSans-38"/>
     <use x="198.046875" xlink:href="#DejaVuSans-36"/>
     <use x="261.669922" xlink:href="#DejaVuSans-2c"/>
     <use x="293.457031" xlink:href="#DejaVuSans-20"/>
     <use x="325.244141" xlink:href="#DejaVuSans-30"/>
     <use x="388.867188" xlink:href="#DejaVuSans-2e"/>
     <use x="420.654297" xlink:href="#DejaVuSans-33"/>
     <use x="484.277344" xlink:href="#DejaVuSans-39"/>
     <use x="547.900391" xlink:href="#DejaVuSans-29"/>
    </g>
   </g>
   <g id="text_15">
    <!-- (0.38, 0.55) -->
    <defs>
     <path d="M 10.796875 72.90625 
L 49.515625 72.90625 
L 49.515625 64.59375 
L 19.828125 64.59375 
L 19.828125 46.734375 
Q 21.96875 47.46875 24.109375 47.828125 
Q 26.265625 48.1875 28.421875 48.1875 
Q 40.625 48.1875 47.75 41.5 
Q 54.890625 34.8125 54.890625 23.390625 
Q 54.890625 11.625 47.5625 5.09375 
Q 40.234375 -1.421875 26.90625 -1.421875 
Q 22.3125 -1.421875 17.546875 -0.640625 
Q 12.796875 0.140625 7.71875 1.703125 
L 7.71875 11.625 
Q 12.109375 9.234375 16.796875 8.0625 
Q 21.484375 6.890625 26.703125 6.890625 
Q 35.15625 6.890625 40.078125 11.328125 
Q 45.015625 15.765625 45.015625 23.390625 
Q 45.015625 31 40.078125 35.4375 
Q 35.15625 39.890625 26.703125 39.890625 
Q 22.75 39.890625 18.8125 39.015625 
Q 14.890625 38.140625 10.796875 36.28125 
z
" id="DejaVuSans-35"/>
    </defs>
    <g transform="translate(168.571572 138.807436)scale(0.1 -0.1)">
     <use xlink:href="#DejaVuSans-28"/>
     <use x="39.013672" xlink:href="#DejaVuSans-30"/>
     <use x="102.636719" xlink:href="#DejaVuSans-2e"/>
     <use x="134.423828" xlink:href="#DejaVuSans-33"/>
     <use x="198.046875" xlink:href="#DejaVuSans-38"/>
     <use x="261.669922" xlink:href="#DejaVuSans-2c"/>
     <use x="293.457031" xlink:href="#DejaVuSans-20"/>
     <use x="325.244141" xlink:href="#DejaVuSans-30"/>
     <use x="388.867188" xlink:href="#DejaVuSans-2e"/>
     <use x="420.654297" xlink:href="#DejaVuSans-35"/>
     <use x="484.277344" xlink:href="#DejaVuSans-35"/>
     <use x="547.900391" xlink:href="#DejaVuSans-29"/>
    </g>
   </g>
   <g id="text_16">
    <!-- (0.21, 0.42) -->
    <g transform="translate(114.218119 169.311329)scale(0.1 -0.1)">
     <use xlink:href="#DejaVuSans-28"/>
     <use x="39.013672" xlink:href="#DejaVuSans-30"/>
     <use x="102.636719" xlink:href="#DejaVuSans-2e"/>
     <use x="134.423828" xlink:href="#DejaVuSans-32"/>
     <use x="198.046875" xlink:href="#DejaVuSans-31"/>
     <use x="261.669922" xlink:href="#DejaVuSans-2c"/>
     <use x="293.457031" xlink:href="#DejaVuSans-20"/>
     <use x="325.244141" xlink:href="#DejaVuSans-30"/>
     <use x="388.867188" xlink:href="#DejaVuSans-2e"/>
     <use x="420.654297" xlink:href="#DejaVuSans-34"/>
     <use x="484.277344" xlink:href="#DejaVuSans-32"/>
     <use x="547.900391" xlink:href="#DejaVuSans-29"/>
    </g>
   </g>
   <g id="text_17">
    <!-- (0.95, 0.82) -->
    <g transform="translate(348.48489 74.467578)scale(0.1 -0.1)">
     <use xlink:href="#DejaVuSans-28"/>
     <use x="39.013672" xlink:href="#DejaVuSans-30"/>
     <use x="102.636719" xlink:href="#DejaVuSans-2e"/>
     <use x="134.423828" xlink:href="#DejaVuSans-39"/>
     <use x="198.046875" xlink:href="#DejaVuSans-35"/>
     <use x="261.669922" xlink:href="#DejaVuSans-2c"/>
     <use x="293.457031" xlink:href="#DejaVuSans-20"/>
     <use x="325.244141" xlink:href="#DejaVuSans-30"/>
     <use x="388.867188" xlink:href="#DejaVuSans-2e"/>
     <use x="420.654297" xlink:href="#DejaVuSans-38"/>
     <use x="484.277344" xlink:href="#DejaVuSans-32"/>
     <use x="547.900391" xlink:href="#DejaVuSans-29"/>
    </g>
   </g>
  </g>
 </g>
 <defs>
  <clipPath id="p3ea83c64f5">
   <rect height="266.112" width="357.12" x="57.6" y="41.472"/>
  </clipPath>
 </defs>
</svg>
